<svg width="240" height="176" viewBox="0 0 240 176" fill="none" xmlns="http://www.w3.org/2000/svg">
<path d="M237.83 89.63C236.81 87.8372 235.443 86.2656 233.808 85.0071C232.173 83.7485 230.305 82.8283 228.31 82.3C221.076 80.4378 213.6 79.6892 206.14 80.08C210.14 60.23 207.14 44.53 204.08 35.22C202.861 31.3957 200.26 28.1626 196.787 26.1511C193.313 24.1397 189.214 23.494 185.29 24.34C175.115 26.6063 165.439 30.7138 156.74 36.46C150.37 23.4464 141.095 12.0705 129.63 3.21C126.852 1.12635 123.473 0 120 0C116.528 0 113.149 1.12635 110.37 3.21C98.9037 12.0679 89.6279 23.4445 83.2604 36.46C74.5619 30.7138 64.8862 26.6063 54.7104 24.34C50.7864 23.494 46.688 24.1397 43.2142 26.1511C39.7404 28.1626 37.1401 31.3957 35.9204 35.22C32.9204 44.53 29.9204 60.22 33.8604 80.08C26.4006 79.6892 18.9247 80.4378 11.6904 82.3C9.6963 82.8283 7.82739 83.7485 6.19285 85.0071C4.55831 86.2656 3.19089 87.8372 2.17043 89.63C1.10248 91.4666 0.410982 93.4974 0.136275 95.6041C-0.138431 97.7107 0.00915641 99.851 0.570428 101.9C3.96043 114.47 14.3704 138.38 45.9004 157.22C77.4304 176.06 105.13 176 120.05 176C134.97 176 162.72 176 194.05 157.22C225.58 138.38 235.99 114.47 239.38 101.9C239.949 99.8542 240.105 97.7158 239.839 95.6092C239.573 93.5026 238.89 91.47 237.83 89.63ZM51.1404 40.14C51.1524 40.0904 51.1828 40.0472 51.2256 40.0193C51.2684 39.9914 51.3202 39.9809 51.3704 39.99C60.6753 42.0919 69.4562 46.0622 77.1804 51.66C73.6634 63.1656 71.9167 75.1392 72.0004 87.17C72.0004 105.91 75.7704 121.17 81.1104 133.45C73.5189 125.852 66.9502 117.296 61.5704 108C43.5504 76.62 47.3004 52 51.1404 40.14ZM54.1404 143.49C27.4704 127.57 18.8204 108.05 16.0004 97.7C23.3586 95.8884 30.994 95.4913 38.5004 96.53C41.0064 103.243 44.067 109.735 47.6504 115.94C56.449 131.109 67.976 144.521 81.6504 155.5C71.9809 152.72 62.7184 148.682 54.1004 143.49H54.1404ZM120 158.4C110.67 151.46 88.0004 130.17 88.0004 87.17C88.0004 44.7 110.38 23.24 120 16C129.62 23.26 152 44.72 152 87.19C152 130.17 129.33 151.46 120 158.4ZM162.82 51.66C170.545 46.0658 179.326 42.0989 188.63 40C188.681 39.9909 188.732 40.0014 188.775 40.0293C188.818 40.0572 188.848 40.1004 188.86 40.15C192.7 52 196.45 76.62 178.43 108C173.055 117.309 166.486 125.875 158.89 133.48C164.23 121.22 168 105.94 168 87.2C168.087 75.1591 166.34 63.1752 162.82 51.66ZM224 97.72C221.23 107.97 212.6 127.53 185.91 143.49C177.292 148.679 168.029 152.713 158.36 155.49C172.035 144.511 183.562 131.099 192.36 115.93C195.944 109.725 199.004 103.233 201.51 96.52C209.015 95.486 216.647 95.8898 224 97.71V97.72Z" fill="#D4B2A8"/>
</svg>
